PathFileType	4	(X/Y/Z)	HSS_squat4.trc
DataRate	CameraRate	NumFrames	NumMarkers	Units	OrigDataRate	OrigDataStartFrame	OrigNumFrames
120.0	120.0	4	44	mm	120.0	852	973
Frame#	Time		R.Shoulder		Offset		L.Shoulder		R.Elbow		R.Wrist.Radial		R.Wrist		R.Hand		L.Elbow		L.Wrist.Radial		L.Wrist		L.Hand		R.Hip		V.Sacral		L.PSIS		L.Hip		R.Thigh.Upper		R.Thigh.Front		R.Thigh.Rear		X.Shell.Lower.Thigh.Right		R.Knee.Lateral		R.Shank.Upper		R.Shank.Front		R.Shank.Rear		X.Shell.Lower.Shank.Right		R.Ankle.Lateral		R.Heel		R.Toe		L.Thigh.Upper		L.Thigh.Front		L.Thigh.Rear		X.Shell.Lower.Thigh.Left		L.Knee.Lateral		L.Shank.Upper		L.Shank.Front		L.Shank.Rear		X.Shell.Lower.Shank.Left		L.Ankle.Lateral		L.Heel		L.Toe		R.Troc		L.Troc		R.PSIS		L.ASIS		R.ASIS
			X1	Y1	Z1	X2	Y2	Z2	X3	Y3	Z3	X4	Y4	Z4	X5	Y5	Z5	X6	Y6	Z6	X7	Y7	Z7	X8	Y8	Z8	X9	Y9	Z9	X10	Y10	Z10	X11	Y11	Z11	X12	Y12	Z12	X13	Y13	Z13	X14	Y14	Z14	X15	Y15	Z15	X16	Y16	Z16	X17	Y17	Z17	X18	Y18	Z18	X19	Y19	Z19	X20	Y20	Z20	X21	Y21	Z21	X22	Y22	Z22	X23	Y23	Z23	X24	Y24	Z24	X25	Y25	Z25	X26	Y26	Z26	X27	Y27	Z27	X28	Y28	Z28	X29	Y29	Z29	X30	Y30	Z30	X31	Y31	Z31	X32	Y32	Z32	X33	Y33	Z33	X34	Y34	Z34	X35	Y35	Z35	X36	Y36	Z36	X37	Y37	Z37	X38	Y38	Z38	X39	Y39	Z39	X40	Y40	Z40	X41	Y41	Z41	X42	Y42	Z42	X43	Y43	Z43	X44	Y44	Z44

852	7.09167	154.02361	1485.87488	-77.52450	-136.09535	1386.29895	40.48660	-188.55353	1495.79077	-85.53569	291.36508	1278.56470	-339.98111	73.79610	1335.16187	-498.02744	127.46884	1359.73572	-544.99615	44.46702	1363.75574	-577.83844	-333.16690	1312.59277	-356.34485	-111.30974	1332.18652	-503.42090	-155.41315	1370.69287	-544.39966	-70.44017	1359.26440	-572.75598	132.34871	1039.53040	-98.00089	-15.61504	1019.49274	20.76032	-56.90102	1026.19617	17.67978	-163.06258	1037.62805	-101.49922	192.35670	704.72827	-162.38535	182.16150	670.71545	-201.97276	202.02863	664.10034	-143.73552	190.03041	634.14282	-176.84717	177.40265	520.33191	-130.91357	234.24664	375.16647	-120.84361	213.03471	329.08276	-145.78889	225.63625	339.22299	-86.92426	219.84669	297.62646	-108.05801	191.75996	71.45685	-84.55928	143.02750	32.91001	-40.73904	201.07434	32.92041	-235.63904	-215.70839	704.34247	-173.13797	-198.72470	655.80737	-199.80844	-231.06433	665.95508	-146.98265	-223.75113	633.93970	-177.48497	-208.16800	511.76962	-128.22227	-267.04050	316.00424	-98.35985	-252.00276	289.81952	-124.99231	-258.80130	276.81934	-66.62243	-263.45361	245.82632	-89.57266	-240.36452	75.99699	-98.08529	-195.90540	34.67793	-41.86018	-241.42114	33.70245	-240.34236	170.63194	909.21613	-109.94451	-202.65204	911.52307	-103.75246	28.28104	1024.93372	19.69554	-121.67677	1005.88770	-164.85173	101.29744	1004.95612	-157.03256
853	7.10000	154.16876	1485.76526	-77.09924	-135.91754	1385.85913	40.81480	-188.61420	1495.69116	-84.82327	291.40701	1278.32654	-339.54214	73.62207	1334.91650	-497.47501	127.31649	1359.38245	-544.52191	44.23537	1363.41858	-577.31976	-333.39227	1312.51562	-355.65237	-111.73986	1331.97839	-502.45261	-155.53683	1370.53943	-543.64569	-70.57924	1358.98303	-572.08008	132.55559	1039.70569	-99.09055	-15.25550	1019.15625	19.28143	-56.81677	1025.68091	16.61349	-162.89609	1037.80054	-102.72552	192.58963	704.89105	-162.69516	182.37604	670.55060	-201.97797	202.14325	664.27173	-143.74559	190.20763	634.16345	-176.66553	177.50005	520.45563	-129.90562	234.31004	375.30762	-120.06313	213.04878	329.20758	-145.09889	225.71413	339.24716	-86.37949	219.92638	297.67383	-107.40416	191.73538	71.48552	-84.60508	142.98354	32.90084	-40.82736	201.04033	32.70850	-235.84407	-216.07437	704.46844	-172.87985	-199.24025	655.77051	-199.45975	-231.18456	666.33771	-146.50725	-224.11079	634.03864	-176.88837	-208.28026	512.01257	-127.02554	-267.06577	316.09729	-97.35632	-252.22490	289.98749	-124.10904	-258.79434	276.79138	-65.74587	-263.53598	245.88588	-88.70248	-240.39133	76.00418	-97.92908	-195.90317	34.66620	-41.88808	-241.47029	33.69559	-240.34779	171.07832	909.46710	-111.32454	-202.19438	911.70093	-104.95819	28.51993	1024.40918	18.66569	-121.53471	1006.35443	-166.17163	101.60811	1005.44598	-158.40120
854	7.10833	154.27597	1485.55627	-76.60484	-135.73883	1385.37854	41.15401	-188.68994	1495.59839	-84.14075	291.40509	1277.97473	-339.10892	73.39111	1334.62317	-497.10367	127.16039	1359.04260	-544.13593	44.12208	1363.10645	-576.95654	-333.57468	1312.40430	-354.95749	-111.84465	1331.74536	-501.72568	-155.59860	1370.41418	-543.03900	-70.85533	1358.70984	-571.57062	132.68890	1039.84558	-100.20312	-15.10720	1018.64771	18.09493	-56.41324	1025.15466	15.14999	-162.71231	1037.88940	-103.73139	192.76012	705.05817	-162.98468	182.50644	670.46332	-201.99001	202.26027	664.52692	-143.73138	190.36484	634.21344	-176.47273	177.54988	520.61615	-129.09044	234.41583	375.43439	-119.12685	213.08569	329.37927	-144.44780	225.70807	339.25037	-85.81370	219.97792	297.74768	-106.81919	191.69681	71.49335	-84.54485	142.97350	32.92915	-40.84642	201.09302	32.59948	-235.92862	-216.36385	704.63995	-172.65720	-199.73253	655.77295	-199.08809	-231.35904	666.69440	-146.10887	-224.43422	634.18347	-176.28586	-208.33801	512.19421	-125.71590	-267.13062	316.11905	-96.36395	-252.39464	290.12775	-123.25727	-258.76190	276.74927	-64.88837	-263.54822	245.90082	-87.94135	-240.38368	75.99750	-97.83543	-195.88792	34.68178	-41.90779	-241.50266	33.64537	-240.38171	171.48175	909.75793	-112.91025	-201.67767	911.81219	-106.05839	28.72228	1023.86694	17.24546	-121.34880	1006.71796	-167.52774	101.76311	1005.89795	-159.80977
855	7.11667	154.31975	1485.39099	-76.11837	-135.61972	1384.78540	41.40273	-188.74670	1495.51575	-83.48257	291.34927	1277.67993	-338.80267	73.24210	1334.34583	-496.63663	126.99605	1358.67432	-543.78021	43.92829	1362.72705	-576.47583	-333.67624	1312.23914	-354.28046	-111.74685	1331.57056	-501.31329	-155.81447	1370.24133	-542.43732	-70.96768	1358.48206	-571.01459	132.91498	1040.04395	-101.27282	-14.61359	1018.15039	16.79339	-56.31889	1024.69470	14.11701	-162.55823	1037.96521	-104.80946	192.88217	705.24445	-163.27312	182.63136	670.40991	-202.06143	202.35875	664.79462	-143.74710	190.49828	634.30450	-176.35364	177.75504	520.82495	-128.11691	234.54793	375.56387	-118.40002	213.19333	329.59433	-143.74736	225.75810	339.32526	-85.02430	220.04942	297.83249	-106.31086	191.71307	71.49112	-84.46687	142.94986	32.91951	-40.83712	201.11806	32.54513	-235.97157	-216.52261	704.85187	-172.53659	-200.17155	655.79895	-198.81123	-231.48466	666.97205	-145.79979	-224.71181	634.37073	-175.70732	-208.50575	512.37848	-124.68711	-267.26654	316.28064	-95.40942	-252.60345	290.24808	-122.30563	-258.78522	276.79068	-63.99507	-263.60104	245.94066	-87.20976	-240.35039	75.99721	-97.65666	-195.87543	34.69159	-41.91757	-241.51088	33.58833	-240.40456	171.55560	909.90747	-114.12975	-201.34184	912.05084	-107.13376	28.77524	1023.34943	16.25625	-121.28271	1007.08203	-168.76643	102.18960	1006.29053	-161.05145
